<svg xmlns="http://www.w3.org/2000/svg" viewBox="0 0 800 500" width="800" height="500">
  <defs>
    <linearGradient id="bg10" x1="0" y1="0" x2="1" y2="1">
      <stop offset="0%" stop-color="#1F0E04"/>
      <stop offset="100%" stop-color="#07050E"/>
    </linearGradient>
    <radialGradient id="g10a" cx="0.25" cy="0.25" r="0.6">
      <stop offset="0%" stop-color="#F97316" stop-opacity="0.5"/>
      <stop offset="100%" stop-color="#F97316" stop-opacity="0"/>
    </radialGradient>
    <radialGradient id="g10b" cx="0.85" cy="0.8" r="0.55">
      <stop offset="0%" stop-color="#10B981" stop-opacity="0.4"/>
      <stop offset="100%" stop-color="#10B981" stop-opacity="0"/>
    </radialGradient>
  </defs>
  <rect width="800" height="500" fill="url(#bg10)"/>
  <rect width="800" height="500" fill="url(#g10a)"/>
  <rect width="800" height="500" fill="url(#g10b)"/>

  <!-- Reservation card (left) -->
  <g transform="translate(80,110)">
    <rect width="320" height="280" rx="18" fill="rgba(7,5,14,0.85)" stroke="rgba(249,115,22,0.4)"/>
    <text x="24" y="40" font-family="Inter,system-ui" font-size="12" font-weight="700" fill="#F97316" letter-spacing="3">LA COLMENA</text>
    <text x="24" y="76" font-family="Inter,system-ui" font-size="22" font-weight="800" fill="#fff" letter-spacing="-1">Reserva por voz</text>

    <!-- waveform -->
    <g transform="translate(24,108)" fill="rgba(249,115,22,0.7)">
      <rect x="0" y="14" width="3" height="14" rx="1.5"/>
      <rect x="8" y="8" width="3" height="26" rx="1.5"/>
      <rect x="16" y="2" width="3" height="38" rx="1.5"/>
      <rect x="24" y="10" width="3" height="22" rx="1.5"/>
      <rect x="32" y="0" width="3" height="42" rx="1.5"/>
      <rect x="40" y="6" width="3" height="30" rx="1.5"/>
      <rect x="48" y="14" width="3" height="14" rx="1.5"/>
      <rect x="56" y="4" width="3" height="34" rx="1.5"/>
      <rect x="64" y="10" width="3" height="22" rx="1.5"/>
      <rect x="72" y="0" width="3" height="42" rx="1.5"/>
      <rect x="80" y="8" width="3" height="26" rx="1.5"/>
      <rect x="88" y="14" width="3" height="14" rx="1.5"/>
      <rect x="96" y="2" width="3" height="38" rx="1.5"/>
      <rect x="104" y="10" width="3" height="22" rx="1.5"/>
      <rect x="112" y="6" width="3" height="30" rx="1.5"/>
      <rect x="120" y="14" width="3" height="14" rx="1.5"/>
      <rect x="128" y="0" width="3" height="42" rx="1.5"/>
      <rect x="136" y="8" width="3" height="26" rx="1.5"/>
    </g>

    <g font-family="ui-monospace,monospace" font-size="11">
      <g transform="translate(24,170)">
        <rect width="272" height="32" rx="8" fill="rgba(249,115,22,0.12)" stroke="rgba(249,115,22,0.45)"/>
        <text x="14" y="20" fill="rgba(255,255,255,0.85)">📞 Mesa 4 · jueves 21:30</text>
      </g>
      <g transform="translate(24,210)">
        <rect width="272" height="32" rx="8" fill="rgba(34,197,94,0.12)" stroke="rgba(34,197,94,0.45)"/>
        <text x="14" y="20" fill="rgba(255,255,255,0.85)">✅ WhatsApp recordatorio 24h</text>
      </g>
    </g>
  </g>

  <!-- Stats column (right) -->
  <g transform="translate(440,110)">
    <text x="0" y="20" font-family="Inter,system-ui" font-size="12" font-weight="700" fill="rgba(255,255,255,0.55)" letter-spacing="3">ANTES → DESPUÉS</text>

    <g transform="translate(0,40)">
      <rect width="280" height="76" rx="14" fill="rgba(239,68,68,0.1)" stroke="rgba(239,68,68,0.35)"/>
      <text x="20" y="30" font-family="ui-monospace,monospace" font-size="10" fill="rgba(239,68,68,0.85)" letter-spacing="2">SIN IA</text>
      <text x="20" y="58" font-family="Inter,system-ui" font-size="20" font-weight="800" fill="#fff">18% no-shows</text>
    </g>

    <g transform="translate(0,128)">
      <rect width="280" height="76" rx="14" fill="rgba(34,197,94,0.12)" stroke="rgba(34,197,94,0.45)"/>
      <text x="20" y="30" font-family="ui-monospace,monospace" font-size="10" fill="#22C55E" letter-spacing="2">CON IA</text>
      <text x="20" y="58" font-family="Inter,system-ui" font-size="20" font-weight="800" fill="#fff">4% no-shows</text>
    </g>

    <g transform="translate(0,216)">
      <rect width="280" height="60" rx="14" fill="rgba(249,115,22,0.18)" stroke="rgba(249,115,22,0.5)"/>
      <text x="20" y="26" font-family="ui-monospace,monospace" font-size="10" fill="#F97316" letter-spacing="2">EXTRA AL MES</text>
      <text x="20" y="50" font-family="Inter,system-ui" font-size="18" font-weight="800" fill="#fff">+ 32 reservas</text>
    </g>
  </g>
</svg>
