<svg xmlns="http://www.w3.org/2000/svg" viewBox="0 0 800 500" width="800" height="500">
  <defs>
    <linearGradient id="bg64" x1="0" y1="0" x2="1" y2="1">
      <stop offset="0%" stop-color="#0F1A2E"/>
      <stop offset="100%" stop-color="#07050E"/>
    </linearGradient>
    <radialGradient id="g64a" cx="0.2" cy="0.4" r="0.6">
      <stop offset="0%" stop-color="#3B82F6" stop-opacity="0.45"/>
      <stop offset="100%" stop-color="#3B82F6" stop-opacity="0"/>
    </radialGradient>
    <radialGradient id="g64b" cx="0.85" cy="0.7" r="0.55">
      <stop offset="0%" stop-color="#F97316" stop-opacity="0.4"/>
      <stop offset="100%" stop-color="#F97316" stop-opacity="0"/>
    </radialGradient>
  </defs>
  <rect width="800" height="500" fill="url(#bg64)"/>
  <rect width="800" height="500" fill="url(#g64a)"/>
  <rect width="800" height="500" fill="url(#g64b)"/>

  <text x="64" y="118" font-family="ui-monospace,monospace" font-size="13" letter-spacing="4" fill="rgba(59,130,246,0.9)">LOGISTICA · ESPANA</text>
  <text x="64" y="184" font-family="Inter,system-ui" font-size="44" font-weight="800" fill="#fff">Envios para</text>
  <text x="64" y="238" font-family="Inter,system-ui" font-size="44" font-weight="800" fill="#fff">tu e-commerce</text>

  <g transform="translate(64,300)">
    <line x1="20" y1="40" x2="640" y2="40" stroke="rgba(255,255,255,0.15)" stroke-width="2" stroke-dasharray="4 6"/>
    <g font-family="ui-monospace,monospace" font-size="12" fill="rgba(255,255,255,0.8)">
      <circle cx="20" cy="40" r="9" fill="#3B82F6"/>
      <text x="6" y="78">Almacen</text>
      <circle cx="230" cy="40" r="9" fill="#8B5CF6"/>
      <text x="200" y="78">Transporte</text>
      <circle cx="440" cy="40" r="9" fill="#F97316"/>
      <text x="412" y="78">Reparto</text>
      <circle cx="640" cy="40" r="9" fill="#22C55E"/>
      <text x="616" y="78">Cliente</text>
    </g>
  </g>

  <g transform="translate(560,90)" opacity="0.9">
    <rect x="-6" y="0" width="120" height="80" rx="10" fill="rgba(7,5,14,0.85)" stroke="rgba(249,115,22,0.55)"/>
    <text x="14" y="34" font-family="ui-monospace,monospace" font-size="11" fill="rgba(255,255,255,0.6)">24-48h</text>
    <text x="14" y="58" font-family="Inter,system-ui" font-size="18" font-weight="800" fill="#F97316">Express</text>
  </g>
</svg>
