<svg xmlns="http://www.w3.org/2000/svg" viewBox="0 0 800 500" width="800" height="500">
  <defs>
    <linearGradient id="bg53" x1="0" y1="0" x2="1" y2="1">
      <stop offset="0%" stop-color="#1A0F2E"/>
      <stop offset="100%" stop-color="#07050E"/>
    </linearGradient>
    <radialGradient id="g53a" cx="0.25" cy="0.3" r="0.55">
      <stop offset="0%" stop-color="#3B82F6" stop-opacity="0.45"/>
      <stop offset="100%" stop-color="#3B82F6" stop-opacity="0"/>
    </radialGradient>
    <radialGradient id="g53b" cx="0.8" cy="0.7" r="0.55">
      <stop offset="0%" stop-color="#8B5CF6" stop-opacity="0.45"/>
      <stop offset="100%" stop-color="#8B5CF6" stop-opacity="0"/>
    </radialGradient>
  </defs>
  <rect width="800" height="500" fill="url(#bg53)"/>
  <rect width="800" height="500" fill="url(#g53a)"/>
  <rect width="800" height="500" fill="url(#g53b)"/>

  <!-- Shield -->
  <g transform="translate(180,250)">
    <path d="M0 -110 L85 -80 L85 10 Q85 75 0 110 Q-85 75 -85 10 L-85 -80 Z" fill="rgba(59,130,246,0.14)" stroke="rgba(59,130,246,0.7)" stroke-width="2.5"/>
    <path d="M-32 0 L-8 26 L40 -30" stroke="#22C55E" stroke-width="7" stroke-linecap="round" stroke-linejoin="round" fill="none"/>
    <text x="0" y="145" text-anchor="middle" font-family="ui-monospace,monospace" font-size="10" fill="rgba(255,255,255,0.5)" letter-spacing="3">WEB PROTEGIDA</text>
  </g>

  <!-- Status panel -->
  <g transform="translate(390,95)">
    <rect width="330" height="310" rx="18" fill="rgba(7,5,14,0.88)" stroke="rgba(255,255,255,0.14)"/>
    <text x="24" y="40" font-family="ui-monospace,monospace" font-size="11" fill="rgba(255,255,255,0.55)" letter-spacing="3">MANTENIMIENTO · ESTADO</text>

    <g font-family="ui-monospace,monospace" font-size="11">
      <g transform="translate(24,62)">
        <rect width="282" height="38" rx="9" fill="rgba(34,197,94,0.1)" stroke="rgba(34,197,94,0.45)"/>
        <circle cx="20" cy="19" r="5" fill="#22C55E"/>
        <text x="38" y="24" fill="rgba(255,255,255,0.85)">SSL renovado · válido</text>
      </g>
      <g transform="translate(24,110)">
        <rect width="282" height="38" rx="9" fill="rgba(34,197,94,0.1)" stroke="rgba(34,197,94,0.45)"/>
        <circle cx="20" cy="19" r="5" fill="#22C55E"/>
        <text x="38" y="24" fill="rgba(255,255,255,0.85)">Backup diario · 02:00</text>
      </g>
      <g transform="translate(24,158)">
        <rect width="282" height="38" rx="9" fill="rgba(34,197,94,0.1)" stroke="rgba(34,197,94,0.45)"/>
        <circle cx="20" cy="19" r="5" fill="#22C55E"/>
        <text x="38" y="24" fill="rgba(255,255,255,0.85)">Actualizaciones al día</text>
      </g>
      <g transform="translate(24,206)">
        <rect width="282" height="38" rx="9" fill="rgba(34,197,94,0.1)" stroke="rgba(34,197,94,0.45)"/>
        <circle cx="20" cy="19" r="5" fill="#22C55E"/>
        <text x="38" y="24" fill="rgba(255,255,255,0.85)">Formularios OK · 12ms</text>
      </g>
      <g transform="translate(24,254)">
        <rect width="282" height="38" rx="9" fill="rgba(139,92,246,0.12)" stroke="rgba(139,92,246,0.5)"/>
        <circle cx="20" cy="19" r="5" fill="#8B5CF6"/>
        <text x="38" y="24" fill="rgba(255,255,255,0.85)">Cambio aplicado · hoy</text>
      </g>
    </g>
  </g>
</svg>
