<svg xmlns="http://www.w3.org/2000/svg" viewBox="0 0 800 500" width="800" height="500">
  <defs>
    <linearGradient id="bg74" x1="0" y1="0" x2="1" y2="1">
      <stop offset="0%" stop-color="#1A0F2E"/>
      <stop offset="100%" stop-color="#07050E"/>
    </linearGradient>
    <radialGradient id="g74a" cx="0.2" cy="0.35" r="0.6">
      <stop offset="0%" stop-color="#8B5CF6" stop-opacity="0.45"/>
      <stop offset="100%" stop-color="#8B5CF6" stop-opacity="0"/>
    </radialGradient>
    <radialGradient id="g74b" cx="0.85" cy="0.7" r="0.55">
      <stop offset="0%" stop-color="#3B82F6" stop-opacity="0.4"/>
      <stop offset="100%" stop-color="#3B82F6" stop-opacity="0"/>
    </radialGradient>
  </defs>
  <rect width="800" height="500" fill="url(#bg74)"/>
  <rect width="800" height="500" fill="url(#g74a)"/>
  <rect width="800" height="500" fill="url(#g74b)"/>

  <text x="64" y="120" font-family="ui-monospace,monospace" font-size="13" fill="rgba(255,255,255,0.5)" letter-spacing="3">AUTORIDAD WEB</text>
  <text x="64" y="190" font-family="Inter,system-ui" font-size="44" font-weight="800" fill="#fff">Backlinks locales</text>
  <text x="64" y="244" font-family="Inter,system-ui" font-size="44" font-weight="800" fill="#8B5CF6">para pymes</text>

  <g transform="translate(64,300)">
    <g font-family="ui-monospace,monospace" font-size="12" fill="rgba(255,255,255,0.78)">
      <text x="0" y="0">prensa-local.es</text>
      <text x="0" y="34">asociacion-comercio.es</text>
      <text x="0" y="68">directorio-ciudad.es</text>
    </g>
  </g>

  <g transform="translate(560,250)">
    <circle cx="0" cy="-70" r="14" fill="rgba(139,92,246,0.8)"/>
    <circle cx="-70" cy="20" r="14" fill="rgba(139,92,246,0.8)"/>
    <circle cx="70" cy="20" r="14" fill="rgba(139,92,246,0.8)"/>
    <circle cx="0" cy="40" r="30" fill="rgba(7,5,14,0.9)" stroke="rgba(59,130,246,0.8)" stroke-width="2"/>
    <text x="0" y="46" text-anchor="middle" font-family="Inter,system-ui" font-size="13" font-weight="800" fill="#fff">TÚ</text>
    <line x1="0" y1="-56" x2="0" y2="14" stroke="rgba(139,92,246,0.5)" stroke-width="2"/>
    <line x1="-58" y1="26" x2="-24" y2="34" stroke="rgba(139,92,246,0.5)" stroke-width="2"/>
    <line x1="58" y1="26" x2="24" y2="34" stroke="rgba(139,92,246,0.5)" stroke-width="2"/>
  </g>
</svg>
