<svg xmlns="http://www.w3.org/2000/svg" viewBox="0 0 800 500" width="800" height="500">
  <defs>
    <linearGradient id="bg14" x1="0" y1="0" x2="1" y2="1">
      <stop offset="0%" stop-color="#0A0F26"/>
      <stop offset="100%" stop-color="#07050E"/>
    </linearGradient>
    <radialGradient id="g14a" cx="0.25" cy="0.3" r="0.55">
      <stop offset="0%" stop-color="#3B82F6" stop-opacity="0.5"/>
      <stop offset="100%" stop-color="#3B82F6" stop-opacity="0"/>
    </radialGradient>
    <radialGradient id="g14b" cx="0.85" cy="0.75" r="0.55">
      <stop offset="0%" stop-color="#22C55E" stop-opacity="0.4"/>
      <stop offset="100%" stop-color="#22C55E" stop-opacity="0"/>
    </radialGradient>
  </defs>
  <rect width="800" height="500" fill="url(#bg14)"/>
  <rect width="800" height="500" fill="url(#g14a)"/>
  <rect width="800" height="500" fill="url(#g14b)"/>

  <!-- Server/uptime visual -->
  <g transform="translate(120,130)">
    <rect width="280" height="240" rx="18" fill="rgba(7,5,14,0.88)" stroke="rgba(34,197,94,0.4)"/>
    <text x="24" y="40" font-family="Inter,system-ui" font-size="12" font-weight="700" fill="rgba(255,255,255,0.55)" letter-spacing="3">UPTIME</text>
    <text x="24" y="80" font-family="Inter,system-ui" font-size="42" font-weight="800" fill="#fff" letter-spacing="-2">99.98%</text>
    <text x="24" y="104" font-family="ui-monospace,monospace" font-size="10" fill="rgba(34,197,94,0.85)">últimos 30 días</text>

    <!-- bars -->
    <g transform="translate(24,128)" fill="#22C55E">
      <rect x="0" y="0" width="6" height="60" rx="2"/>
      <rect x="10" y="0" width="6" height="60" rx="2"/>
      <rect x="20" y="0" width="6" height="60" rx="2"/>
      <rect x="30" y="0" width="6" height="60" rx="2"/>
      <rect x="40" y="0" width="6" height="60" rx="2"/>
      <rect x="50" y="0" width="6" height="60" rx="2"/>
      <rect x="60" y="0" width="6" height="60" rx="2"/>
      <rect x="70" y="0" width="6" height="60" rx="2"/>
      <rect x="80" y="0" width="6" height="60" rx="2"/>
      <rect x="90" y="14" width="6" height="46" rx="2" fill="#FBBF24"/>
      <rect x="100" y="0" width="6" height="60" rx="2"/>
      <rect x="110" y="0" width="6" height="60" rx="2"/>
      <rect x="120" y="0" width="6" height="60" rx="2"/>
      <rect x="130" y="0" width="6" height="60" rx="2"/>
      <rect x="140" y="0" width="6" height="60" rx="2"/>
      <rect x="150" y="0" width="6" height="60" rx="2"/>
      <rect x="160" y="0" width="6" height="60" rx="2"/>
      <rect x="170" y="0" width="6" height="60" rx="2"/>
      <rect x="180" y="0" width="6" height="60" rx="2"/>
      <rect x="190" y="0" width="6" height="60" rx="2"/>
      <rect x="200" y="0" width="6" height="60" rx="2"/>
      <rect x="210" y="0" width="6" height="60" rx="2"/>
      <rect x="220" y="0" width="6" height="60" rx="2"/>
      <rect x="230" y="0" width="6" height="60" rx="2"/>
    </g>

    <g transform="translate(24,210)">
      <rect width="232" height="22" rx="11" fill="rgba(34,197,94,0.18)" stroke="rgba(34,197,94,0.5)"/>
      <text x="116" y="15" text-anchor="middle" font-family="Inter,system-ui" font-size="10" font-weight="700" fill="#22C55E">monitorizado 24/7</text>
    </g>
  </g>

  <!-- Maintenance checklist -->
  <g transform="translate(440,130)">
    <rect width="260" height="240" rx="18" fill="rgba(7,5,14,0.88)" stroke="rgba(59,130,246,0.45)"/>
    <text x="24" y="40" font-family="Inter,system-ui" font-size="12" font-weight="700" fill="#3B82F6" letter-spacing="3">MANTENIMIENTO</text>

    <g font-family="Inter,system-ui" font-size="12">
      <g transform="translate(24,68)">
        <circle cx="9" cy="9" r="9" fill="rgba(34,197,94,0.18)" stroke="rgba(34,197,94,0.7)"/>
        <path d="M4 9 L8 13 L14 5" stroke="#22C55E" stroke-width="2" fill="none" stroke-linecap="round"/>
        <text x="28" y="14" fill="rgba(255,255,255,0.85)">Backups diarios</text>
      </g>
      <g transform="translate(24,98)">
        <circle cx="9" cy="9" r="9" fill="rgba(34,197,94,0.18)" stroke="rgba(34,197,94,0.7)"/>
        <path d="M4 9 L8 13 L14 5" stroke="#22C55E" stroke-width="2" fill="none" stroke-linecap="round"/>
        <text x="28" y="14" fill="rgba(255,255,255,0.85)">Actualizaciones</text>
      </g>
      <g transform="translate(24,128)">
        <circle cx="9" cy="9" r="9" fill="rgba(34,197,94,0.18)" stroke="rgba(34,197,94,0.7)"/>
        <path d="M4 9 L8 13 L14 5" stroke="#22C55E" stroke-width="2" fill="none" stroke-linecap="round"/>
        <text x="28" y="14" fill="rgba(255,255,255,0.85)">SSL + WAF</text>
      </g>
      <g transform="translate(24,158)">
        <circle cx="9" cy="9" r="9" fill="rgba(34,197,94,0.18)" stroke="rgba(34,197,94,0.7)"/>
        <path d="M4 9 L8 13 L14 5" stroke="#22C55E" stroke-width="2" fill="none" stroke-linecap="round"/>
        <text x="28" y="14" fill="rgba(255,255,255,0.85)">Cambios menores</text>
      </g>
      <g transform="translate(24,188)">
        <circle cx="9" cy="9" r="9" fill="rgba(34,197,94,0.18)" stroke="rgba(34,197,94,0.7)"/>
        <path d="M4 9 L8 13 L14 5" stroke="#22C55E" stroke-width="2" fill="none" stroke-linecap="round"/>
        <text x="28" y="14" fill="rgba(255,255,255,0.85)">Sin permanencia</text>
      </g>
    </g>

    <g transform="translate(24,218)">
      <text font-family="Inter,system-ui" font-size="20" font-weight="800" fill="#fff" letter-spacing="-1">desde 60€/mes</text>
    </g>
  </g>
</svg>
