<svg xmlns="http://www.w3.org/2000/svg" viewBox="0 0 800 500" width="800" height="500">
  <defs>
    <linearGradient id="bg21" x1="0" y1="0" x2="1" y2="1">
      <stop offset="0%" stop-color="#1A0F2E"/>
      <stop offset="100%" stop-color="#07050E"/>
    </linearGradient>
    <radialGradient id="g21a" cx="0.25" cy="0.7" r="0.6">
      <stop offset="0%" stop-color="#F97316" stop-opacity="0.5"/>
      <stop offset="100%" stop-color="#F97316" stop-opacity="0"/>
    </radialGradient>
    <radialGradient id="g21b" cx="0.75" cy="0.25" r="0.55">
      <stop offset="0%" stop-color="#3B82F6" stop-opacity="0.45"/>
      <stop offset="100%" stop-color="#3B82F6" stop-opacity="0"/>
    </radialGradient>
  </defs>
  <rect width="800" height="500" fill="url(#bg21)"/>
  <rect width="800" height="500" fill="url(#g21a)"/>
  <rect width="800" height="500" fill="url(#g21b)"/>

  <!-- Dumbbell flat icon -->
  <g transform="translate(240,150)" opacity="0.92">
    <rect x="-100" y="-14" width="200" height="28" rx="10" fill="rgba(255,255,255,0.12)"/>
    <rect x="-130" y="-40" width="26" height="80" rx="8" fill="#F97316"/>
    <rect x="-160" y="-30" width="22" height="60" rx="8" fill="rgba(249,115,22,0.6)"/>
    <rect x="104" y="-40" width="26" height="80" rx="8" fill="#F97316"/>
    <rect x="138" y="-30" width="22" height="60" rx="8" fill="rgba(249,115,22,0.6)"/>
  </g>

  <!-- Class schedule mockup -->
  <g transform="translate(120,250)" opacity="0.9">
    <rect x="0" y="0" width="290" height="170" rx="14" fill="rgba(7,5,14,0.88)" stroke="rgba(255,255,255,0.16)" stroke-width="1.5"/>
    <text x="18" y="28" font-family="ui-monospace,monospace" font-size="11" fill="#F97316" font-weight="bold">CLASES · HOY</text>
    <rect x="18" y="42" width="254" height="28" rx="7" fill="rgba(249,115,22,0.4)"/>
    <text x="30" y="61" font-family="ui-monospace,monospace" font-size="11" fill="#FFFFFF">07:00 cross · 2 plazas</text>
    <rect x="18" y="78" width="254" height="28" rx="7" fill="rgba(59,130,246,0.35)"/>
    <text x="30" y="97" font-family="ui-monospace,monospace" font-size="11" fill="#FFFFFF">18:00 spinning · 5 plazas</text>
    <rect x="18" y="114" width="254" height="28" rx="7" fill="rgba(139,92,246,0.35)"/>
    <text x="30" y="133" font-family="ui-monospace,monospace" font-size="11" fill="#FFFFFF">19:30 fuerza · completa</text>
  </g>

  <!-- Lead capture + video card -->
  <g transform="translate(470,100)" opacity="0.9">
    <rect x="0" y="0" width="230" height="140" rx="14" fill="rgba(7,5,14,0.88)" stroke="rgba(255,255,255,0.16)" stroke-width="1.5"/>
    <!-- play button -->
    <circle cx="115" cy="56" r="30" fill="rgba(59,130,246,0.2)" stroke="#3B82F6" stroke-width="2"/>
    <path d="M106 40 L132 56 L106 72 Z" fill="#3B82F6"/>
    <text x="115" y="118" text-anchor="middle" font-family="ui-monospace,monospace" font-size="11" fill="rgba(255,255,255,0.55)">vídeo · así entrenamos</text>
  </g>
  <g transform="translate(470,270)" opacity="0.9">
    <rect x="0" y="0" width="230" height="130" rx="14" fill="rgba(7,5,14,0.88)" stroke="rgba(255,255,255,0.16)" stroke-width="1.5"/>
    <text x="16" y="28" font-family="ui-monospace,monospace" font-size="10" fill="rgba(255,255,255,0.55)">sesión de prueba GRATIS</text>
    <rect x="16" y="40" width="198" height="16" rx="5" fill="rgba(255,255,255,0.08)"/>
    <rect x="16" y="62" width="198" height="16" rx="5" fill="rgba(255,255,255,0.08)"/>
    <rect x="16" y="88" width="130" height="26" rx="8" fill="rgba(249,115,22,0.9)"/>
    <text x="81" y="105" text-anchor="middle" font-family="Inter,system-ui" font-size="12" font-weight="700" fill="#07050E">Reservar plaza</text>
    <text x="160" y="106" font-family="ui-monospace,monospace" font-size="10" fill="rgba(34,197,94,0.85)">+lead</text>
  </g>

  <circle cx="680" cy="440" r="60" fill="#F97316" opacity="0.15"/>
</svg>
