<svg xmlns="http://www.w3.org/2000/svg" viewBox="0 0 800 500" width="800" height="500">
  <defs>
    <linearGradient id="bg43" x1="0" y1="0" x2="1" y2="1">
      <stop offset="0%" stop-color="#1A0F2E"/>
      <stop offset="100%" stop-color="#07050E"/>
    </linearGradient>
    <radialGradient id="g43a" cx="0.25" cy="0.25" r="0.55">
      <stop offset="0%" stop-color="#F97316" stop-opacity="0.4"/>
      <stop offset="100%" stop-color="#F97316" stop-opacity="0"/>
    </radialGradient>
    <radialGradient id="g43b" cx="0.8" cy="0.7" r="0.55">
      <stop offset="0%" stop-color="#8B5CF6" stop-opacity="0.45"/>
      <stop offset="100%" stop-color="#8B5CF6" stop-opacity="0"/>
    </radialGradient>
  </defs>
  <rect width="800" height="500" fill="url(#bg43)"/>
  <rect width="800" height="500" fill="url(#g43a)"/>
  <rect width="800" height="500" fill="url(#g43b)"/>

  <!-- Product card -->
  <g transform="translate(130,100)" opacity="0.95">
    <rect x="0" y="0" width="250" height="300" rx="16" fill="rgba(7,5,14,0.85)" stroke="rgba(249,115,22,0.4)"/>
    <!-- product image placeholder -->
    <rect x="22" y="22" width="206" height="130" rx="10" fill="rgba(255,255,255,0.05)"/>
    <!-- sneaker silhouette -->
    <g transform="translate(55,55)" opacity="0.9">
      <path d="M0 60 L8 38 Q14 24 28 22 L52 20 Q66 19 76 28 L104 50 Q126 56 138 60 L140 70 Q140 76 132 76 L6 76 Q0 76 0 70 Z" fill="rgba(249,115,22,0.55)"/>
      <path d="M28 22 Q42 36 64 42 Q92 50 104 50" fill="none" stroke="rgba(255,255,255,0.4)" stroke-width="2"/>
    </g>
    <text x="22" y="178" font-family="Inter,system-ui" font-size="13" font-weight="700" fill="#fff">Ficha de producto</text>
    <text x="22" y="198" font-family="ui-monospace,monospace" font-size="10" fill="#FBBF24">★★★★★ 4.8 (214)</text>
    <text x="22" y="226" font-family="Inter,system-ui" font-size="20" font-weight="800" fill="#F97316">89,95 €</text>
    <text x="120" y="226" font-family="ui-monospace,monospace" font-size="9" fill="#22C55E">en stock</text>
    <rect x="22" y="244" width="206" height="36" rx="18" fill="rgba(139,92,246,0.25)" stroke="rgba(139,92,246,0.6)"/>
    <text x="125" y="267" text-anchor="middle" font-family="Inter,system-ui" font-size="12" font-weight="700" fill="#fff">Comprar</text>
  </g>

  <!-- SERP rich result panel -->
  <g transform="translate(430,115)" opacity="0.95">
    <rect x="0" y="0" width="250" height="270" rx="14" fill="rgba(7,5,14,0.85)" stroke="rgba(255,255,255,0.13)"/>
    <rect x="20" y="18" width="210" height="30" rx="15" fill="rgba(255,255,255,0.06)"/>
    <circle cx="36" cy="33" r="5.5" fill="none" stroke="rgba(255,255,255,0.6)" stroke-width="1.5"/>
    <line x1="41" y1="38" x2="47" y2="44" stroke="rgba(255,255,255,0.6)" stroke-width="1.5"/>
    <text x="54" y="37" font-family="ui-monospace,monospace" font-size="9" fill="rgba(255,255,255,0.5)">comprar zapatillas</text>

    <!-- rich result -->
    <g transform="translate(20,64)">
      <rect x="0" y="0" width="210" height="64" rx="10" fill="rgba(249,115,22,0.14)" stroke="rgba(249,115,22,0.45)"/>
      <text x="12" y="20" font-family="Inter,system-ui" font-size="11" font-weight="700" fill="#fff">Tu tienda online</text>
      <text x="12" y="38" font-family="ui-monospace,monospace" font-size="9" fill="#FBBF24">★★★★★ 4.8 · 89,95 € · stock</text>
      <text x="12" y="54" font-family="ui-monospace,monospace" font-size="8" fill="rgba(255,255,255,0.45)">schema: Product</text>
    </g>
    <g transform="translate(20,140)">
      <rect x="0" y="0" width="210" height="42" rx="10" fill="rgba(255,255,255,0.04)"/>
      <rect x="12" y="13" width="120" height="6" rx="3" fill="rgba(255,255,255,0.18)"/>
      <rect x="12" y="27" width="170" height="5" rx="2.5" fill="rgba(255,255,255,0.1)"/>
    </g>
    <g transform="translate(20,192)">
      <rect x="0" y="0" width="210" height="42" rx="10" fill="rgba(255,255,255,0.04)"/>
      <rect x="12" y="13" width="100" height="6" rx="3" fill="rgba(255,255,255,0.18)"/>
      <rect x="12" y="27" width="150" height="5" rx="2.5" fill="rgba(255,255,255,0.1)"/>
    </g>
    <text x="20" y="256" font-family="ui-monospace,monospace" font-size="9" fill="rgba(255,255,255,0.4)">+CTR con resultado enriquecido</text>
  </g>

  <text x="400" y="448" text-anchor="middle" font-family="ui-monospace,monospace" font-size="12" fill="rgba(255,255,255,0.55)" letter-spacing="3">SEO ECOMMERCE · VENDE MAS</text>
</svg>
